<svg width="100%" height="100%" viewBox="0 0 686 257" version="1.1" xmlns="http://www.w3.org/2000/svg" xmlns:xlink="http://www.w3.org/1999/xlink" xml:space="preserve" xmlns:serif="http://www.serif.com/" >
    <g transform="matrix(1,0,0,1,-897.637917,-327.1875)">
        <g transform="matrix(4.166667,0,0,4.166667,0,0)">
            <g transform="matrix(1,0,0,1,215.4331,131.2471)">
                <path d="M0,0.097L0,0.049C0,-4.907 3.814,-8.794 8.964,-8.794C12.438,-8.794 14.672,-7.337 16.179,-5.247L12.632,-2.502C11.66,-3.717 10.543,-4.494 8.915,-4.494C6.535,-4.494 4.858,-2.478 4.858,0L4.858,0.049C4.858,2.599 6.535,4.591 8.915,4.591C10.689,4.591 11.733,3.765 12.754,2.526L16.3,5.053C14.697,7.263 12.535,8.891 8.769,8.891C3.911,8.891 0,5.174 0,0.097" style="fill:white"/>
            </g>
        </g>
        <g transform="matrix(4.166667,0,0,4.166667,0,0)">
            <g transform="matrix(1,0,0,1,246.6718,131.2471)">
                <path d="M0,0.097L0,0.049C0,-2.406 -1.774,-4.543 -4.373,-4.543C-6.948,-4.543 -8.673,-2.454 -8.673,0L-8.673,0.049C-8.673,2.502 -6.899,4.64 -4.324,4.64C-1.725,4.64 0,2.55 0,0.097M-13.507,0.097L-13.507,0.049C-13.507,-4.835 -9.571,-8.794 -4.324,-8.794C0.923,-8.794 4.81,-4.883 4.81,0L4.81,0.049C4.81,4.931 0.874,8.891 -4.373,8.891C-9.62,8.891 -13.507,4.98 -13.507,0.097" style="fill:white"/>
            </g>
        </g>
        <g transform="matrix(4.166667,0,0,4.166667,0,0)">
            <g transform="matrix(1,0,0,1,253.9334,139.7976)">
                <path d="M0,-17.005L4.397,-17.005L11.393,-8.017L11.393,-17.005L16.057,-17.005L16.057,0L11.927,0L4.664,-9.328L4.664,0L0,0L0,-17.005Z" style="fill:white"/>
            </g>
        </g>
        <g transform="matrix(4.166667,0,0,4.166667,0,0)">
            <g transform="matrix(1,0,0,1,272.6849,125.3194)">
                <path d="M0,11.952L2.624,8.818C4.3,10.154 6.17,10.859 8.138,10.859C9.401,10.859 10.081,10.421 10.081,9.693L10.081,9.644C10.081,8.939 9.523,8.551 7.215,8.016C3.596,7.191 0.802,6.17 0.802,2.672L0.802,2.624C0.802,-0.534 3.304,-2.818 7.385,-2.818C10.276,-2.818 12.535,-2.04 14.381,-0.559L12.025,2.769C10.47,1.676 8.77,1.093 7.264,1.093C6.122,1.093 5.563,1.579 5.563,2.186L5.563,2.235C5.563,3.012 6.146,3.352 8.503,3.887C12.414,4.737 14.843,6 14.843,9.183L14.843,9.231C14.843,12.705 12.098,14.77 7.968,14.77C4.956,14.77 2.089,13.822 0,11.952" style="fill:white"/>
            </g>
        </g>
        <g transform="matrix(4.166667,0,0,4.166667,0,0)">
            <g transform="matrix(1,0,0,1,290.2954,139.7976)">
                <path d="M0,-17.005L4.397,-17.005L11.393,-8.017L11.393,-17.005L16.057,-17.005L16.057,0L11.927,0L4.664,-9.328L4.664,0L0,0L0,-17.005Z" style="fill:white"/>
            </g>
        </g>
        <g transform="matrix(4.166667,0,0,4.166667,0,0)">
            <g transform="matrix(1,0,0,1,319.8573,129.3766)">
                <path d="M0,3.716L-1.895,-1.118L-3.814,3.716L0,3.716ZM-4.13,-6.705L0.413,-6.705L7.652,10.421L2.599,10.421L1.361,7.385L-5.198,7.385L-6.413,10.421L-11.369,10.421L-4.13,-6.705Z" style="fill:white"/>
            </g>
        </g>
        <g transform="matrix(4.166667,0,0,4.166667,0,0)">
            <g transform="matrix(1,0,0,1,324.8847,139.9196)">
                <path d="M0,-17.127L5.272,-17.127L9.134,-6.366L12.997,-17.127L18.171,-17.127L11.271,0L6.899,0L0,-17.127Z" style="fill:white"/>
            </g>
        </g>
        <g transform="matrix(4.166667,0,0,4.166667,0,0)">
            <g transform="matrix(1,0,0,1,351.7992,129.3766)">
                <path d="M0,3.716L-1.895,-1.118L-3.814,3.716L0,3.716ZM-4.129,-6.705L0.413,-6.705L7.652,10.421L2.599,10.421L1.361,7.385L-5.198,7.385L-6.413,10.421L-11.369,10.421L-4.129,-6.705Z" style="fill:white"/>
            </g>
        </g>
        <g transform="matrix(4.166667,0,0,4.166667,0,0)">
            <g transform="matrix(1,0,0,1,361.1013,139.7976)">
                <path d="M0,-17.005L4.713,-17.005L4.713,-4.129L12.948,-4.129L12.948,0L0,0L0,-17.005Z" style="fill:white"/>
            </g>
        </g>
        <g transform="matrix(4.166667,0,0,4.166667,0,0)">
            <g transform="matrix(1,0,0,1,377.6928,125.5225)">
                <path d="M0,-0.081C0.143,-0.195 0.214,-0.354 0.214,-0.558C0.214,-0.764 0.143,-0.922 0,-1.033C-0.143,-1.143 -0.344,-1.199 -0.603,-1.199L-1.316,-1.199L-1.316,0.089L-0.603,0.089C-0.344,0.089 -0.143,0.033 0,-0.081M0.571,0.064C0.452,0.237 0.285,0.362 0.069,0.437L0.806,1.578L0.247,1.578L-0.425,0.543L-1.308,0.543L-1.308,1.578L-1.859,1.578L-1.859,-1.66L-0.563,-1.66C-0.158,-1.66 0.162,-1.56 0.396,-1.36C0.632,-1.16 0.749,-0.893 0.749,-0.558C0.749,-0.316 0.689,-0.108 0.571,0.064M0.547,2.121C0.924,1.9 1.223,1.597 1.441,1.215C1.659,0.831 1.769,0.407 1.769,-0.057C1.769,-0.521 1.662,-0.942 1.449,-1.32C1.236,-1.698 0.942,-1.995 0.566,-2.211C0.191,-2.426 -0.231,-2.534 -0.701,-2.534C-1.165,-2.534 -1.587,-2.423 -1.968,-2.202C-2.348,-1.981 -2.646,-1.68 -2.862,-1.3C-3.078,-0.919 -3.187,-0.499 -3.187,-0.04C-3.187,0.418 -3.078,0.838 -2.862,1.219C-2.646,1.599 -2.35,1.9 -1.972,2.121C-1.594,2.343 -1.176,2.453 -0.717,2.453C-0.253,2.453 0.169,2.343 0.547,2.121M0.753,-2.526C1.187,-2.278 1.529,-1.936 1.777,-1.502C2.025,-1.067 2.15,-0.586 2.15,-0.057C2.15,0.473 2.023,0.957 1.769,1.397C1.515,1.836 1.17,2.183 0.732,2.437C0.296,2.69 -0.188,2.818 -0.717,2.818C-1.246,2.818 -1.728,2.69 -2.162,2.437C-2.596,2.183 -2.939,1.837 -3.19,1.401C-3.442,0.964 -3.567,0.483 -3.567,-0.04C-3.567,-0.564 -3.442,-1.045 -3.19,-1.482C-2.939,-1.919 -2.595,-2.264 -2.158,-2.518C-1.721,-2.772 -1.235,-2.899 -0.701,-2.899C-0.166,-2.899 0.318,-2.774 0.753,-2.526" style="fill:white"/>
            </g>
        </g>
        <g transform="matrix(4.166667,0,0,4.166667,0,0)">
            <g transform="matrix(-101.289894,0,0,101.289894,348.910248,96.250282)">
                <path d="M0.557,0.175L0.445,0.175C0.442,0.084 0.441,-0.031 0.448,-0.16L0.56,-0.175C0.553,-0.049 0.554,0.086 0.557,0.175ZM0.271,-0.084C0.277,0.016 0.28,0.084 0.282,0.175L0.202,0.175C0.2,0.085 0.196,-0.006 0.19,-0.104L0.271,-0.084ZM0.802,-0.083C0.801,0.005 0.799,0.091 0.798,0.175L0.718,0.175C0.719,0.091 0.717,-0.015 0.718,-0.104L0.802,-0.083ZM0.414,0.147C0.414,0.156 0.414,0.166 0.414,0.175L0.318,0.175C0.317,0.166 0.317,0.157 0.317,0.148C0.316,0.08 0.315,0.027 0.315,-0.044L0.412,-0.061C0.411,0.009 0.412,0.079 0.414,0.147ZM0.682,0.004C0.686,0.073 0.689,0.126 0.691,0.175L0.595,0.175C0.592,0.128 0.589,0.076 0.585,0.01L0.583,-0.029L0.679,-0.051L0.682,0.004ZM0.162,0.175L0.098,0.175C0.098,0.12 0.097,0.064 0.095,0.003L0.159,0.001C0.161,0.062 0.162,0.119 0.162,0.175ZM0.901,0.014C0.905,0.081 0.908,0.122 0.911,0.175L0.847,0.175C0.844,0.123 0.84,0.069 0.836,0.004L0.901,0.014ZM0.049,0.175L0.001,0.175C0.001,0.155 0,0.132 0,0.104L0.048,0.088C0.049,0.116 0.049,0.155 0.049,0.175ZM1,0.104C1,0.126 0.999,0.15 0.999,0.175L0.951,0.175C0.951,0.15 0.951,0.11 0.952,0.088L1,0.104Z" style="fill:url(#_Linear1)"/>
            </g>
        </g>
    </g>
    <defs>
        <linearGradient id="_Linear1" x1="0" y1="0" x2="1" y2="0" gradientUnits="userSpaceOnUse" gradientTransform="matrix(1,0,0,-1,0,0.000004)"><stop offset="0" style="stop-color:rgb(49,169,225);stop-opacity:1"/><stop offset="0.1" style="stop-color:rgb(49,169,225);stop-opacity:1"/><stop offset="0.5" style="stop-color:rgb(144,181,146);stop-opacity:1"/><stop offset="0.9" style="stop-color:rgb(243,146,0);stop-opacity:1"/><stop offset="1" style="stop-color:rgb(243,146,0);stop-opacity:1"/></linearGradient>
    </defs>
</svg>
